# xmcd
#
# Track frame offsets:
#	150
#	15749
#	33390
#	52701
#	69035
#	82165
#	98599
#	116975
#	133666
#	149960
#	168274
#	186024
#	203024
#	219268
#
# Disc length: 3120 seconds
#
# Revision: 2
# Processed by: cddbd v1.5.2PL0 Copyright (c) Steve Scherf et al.
# Submitted via: audiograbber 1.83.01
#
DISCID=c00c2e0e
DTITLE=Hitz - Country 2005 Volume 4
DYEAR=2005
DGENRE=Country
TTITLE0=Gretchen Wilson - Homewrecker
TTITLE1=Keith Urban - Making Memories Of Us
TTITLE2=Trisha Yearwood - Georgia Rain
TTITLE3=Sugarland - Something More
TTITLE4=Alan Jackson - The Talkin' Song Repair Blues
TTITLE5=Jamie O'Neal - Somebody's Hero
TTITLE6=Van Zant - Help Somebody
TTITLE7=Lee Ann Womack - He Oughta Know That By Now
TTITLE8=Jason Aldean - Hicktown
TTITLE9=Rebecca Lynn Howard - No One Will Ever Love Me
TTITLE10=Miranda Lambert - Bring Me Down
TTITLE11=Shooter Jennings - 4th of July
TTITLE12=Neal McCoy - Billy's Got His Beer Goggles On
TTITLE13=Cowboy Troy - I Play Chicken With The Train
EXTD=
EXTT0=
EXTT1=
EXTT2=
EXTT3=
EXTT4=
EXTT5=
EXTT6=
EXTT7=
EXTT8=
EXTT9=
EXTT10=
EXTT11=
EXTT12=
EXTT13=
PLAYORDER=
